PathFileType	4	(X/Y/Z)	C:\Users\Basilio\Documents\Thesis Gigler\squatting_fais\c3dfiles\040\SLS_pre_front5\markers_experimental.trc
DataRate	CameraRate	NumFrames	NumMarkers	Units	OrigDataRate	OrigDataStartFrame	OrigNumFrames
200.000000	200.000000	4	62	mm	200.000000	654	1309
Frame#	Time	FHD			LBHD			RBHD			C7			T10			CLAV			LSHO			LUUPA			LMUPA			LDUPA			LLEP			LMEP			LRAD			LUL			LRFIN			RSHO			RUPA1			RMUPA			RDUPA			RLEP			RMEP			RRAD			RUL			RUFIN			LASI			RASI			USACR			LSACR			RSACR			LTHI1			LTHI2			LTHI3			LTHI4			LLFC			LMFC			LTIB1			LTIB2			LTIB3			LTIB4			LLMAL			LMMAL			LHEE			LMT1			LMT2			LMT5			RTHI			RTHI2			RTHI3			RTHI4			RLFC			RMFC			RTIB1			RTIB2			RTIB3			RTIB4			RLMAL			RMMAL			RHEE			RMT1			RMT2			RMT5			*61			
		X1	Y1	Z1	X2	Y2	Z2	X3	Y3	Z3	X4	Y4	Z4	X5	Y5	Z5	X6	Y6	Z6	X7	Y7	Z7	X8	Y8	Z8	X9	Y9	Z9	X10	Y10	Z10	X11	Y11	Z11	X12	Y12	Z12	X13	Y13	Z13	X14	Y14	Z14	X15	Y15	Z15	X16	Y16	Z16	X17	Y17	Z17	X18	Y18	Z18	X19	Y19	Z19	X20	Y20	Z20	X21	Y21	Z21	X22	Y22	Z22	X23	Y23	Z23	X24	Y24	Z24	X25	Y25	Z25	X26	Y26	Z26	X27	Y27	Z27	X28	Y28	Z28	X29	Y29	Z29	X30	Y30	Z30	X31	Y31	Z31	X32	Y32	Z32	X33	Y33	Z33	X34	Y34	Z34	X35	Y35	Z35	X36	Y36	Z36	X37	Y37	Z37	X38	Y38	Z38	X39	Y39	Z39	X40	Y40	Z40	X41	Y41	Z41	X42	Y42	Z42	X43	Y43	Z43	X44	Y44	Z44	X45	Y45	Z45	X46	Y46	Z46	X47	Y47	Z47	X48	Y48	Z48	X49	Y49	Z49	X50	Y50	Z50	X51	Y51	Z51	X52	Y52	Z52	X53	Y53	Z53	X54	Y54	Z54	X55	Y55	Z55	X56	Y56	Z56	X57	Y57	Z57	X58	Y58	Z58	X59	Y59	Z59	X60	Y60	Z60	X61	Y61	Z61	X62	Y62	Z62	

655	3.27	-166.693359375	1438.7216796875	-1168.652709960938	-282.2643127441407	1371.755249023438	-1214.239135742188	-330.8721008300782	1321.39208984375	-1084.463256835938	-318.0461730957032	1241.201049804688	-1128.159423828125	-481.3998413085939	987.4696044921877	-1080.08642578125	nan	nan	nan	-252.2294921875001	1239.171020507813	-1257.4658203125	-100.6350708007813	1222.701904296875	-1336.72412109375	-72.24620819091798	1233.818725585938	-1296.665893554688	-31.14933013916016	1216.234130859375	-1336.888916015625	28.78465461730958	1195.0751953125	-1337.8525390625	23.29974746704102	1138.831298828125	-1306.999389648438	nan	nan	nan	303.9062805175782	1242.741577148438	-1288.304321289063	369.3216552734376	1267.161499023438	-1197.919921875	-214.3760070800782	1227.27197265625	-1014.854370117188	-54.36940765380861	1184.840087890625	-941.2263183593752	-30.48642539978028	1209.977905273438	-976.263122558594	13.03949928283692	1174.589233398438	-951.8333129882815	74.39205932617189	1172.817993164063	-967.3381347656252	65.65395355224611	1115.326904296875	-1017.586303710938	318.1559753417969	1255.67138671875	-1113.945556640625	335.6701354980469	1230.49169921875	-1043.431030273438	414.300750732422	1273.857055664063	-1112.4501953125	-372.5469665527344	782.1408691406252	-1175.3291015625	-361.2061462402344	797.158630371094	-956.372253417969	-545.5460815429689	825.2333984375002	-1053.96630859375	-557.6515502929689	792.2436523437502	-1080.106567382813	-551.8276977539064	794.440368652344	-1024.657592773438	-310.1712036132813	557.2185058593751	-1231.366577148438	-226.5048065185547	544.7672729492189	-1244.541748046875	-200.9977569580079	583.5666503906251	-1250.6767578125	-194.091293334961	497.0872192382814	-1228.840454101563	-89.42687225341798	437.5179748535157	-1217.621215820313	-89.63502502441408	439.9163818359376	-1091.492919921875	-147.3240509033203	246.8746795654297	-1132.638549804688	-227.1952667236329	246.426254272461	-1174.8671875	-194.9883728027344	223.1831970214844	-1153.33935546875	-234.5405273437501	162.7568969726563	-1104.222900390625	-341.9353332519532	121.1740036010742	-1110.752075195313	-299.9252929687501	139.803939819336	-1030.836791992188	-412.6382141113282	98.08401489257815	-1050.204345703125	-197.5371551513672	57.85692214965822	-1051.893676757813	-203.8034667968751	49.96547317504884	-1097.55078125	-260.8403320312501	35.81170654296876	-1138.607543945313	-259.6050720214844	600.3862915039064	-872.7767333984377	-195.1241302490235	590.4101562500001	-881.4612426757815	-175.2660217285157	616.0345458984376	-890.200866699219	-154.845703125	517.6610717773439	-891.1072998046877	-45.25798797607423	440.9904785156251	-903.707702636719	-38.72192764282227	437.506317138672	-1040.296752929688	129.5820922851563	365.5613098144532	-930.5430297851565	146.8433837890625	260.9800415039063	-904.2966308593752	177.7953643798828	294.0852355957032	-916.0477294921877	224.0232696533204	278.7849121093751	-949.3696899414065	287.3663024902344	166.8963317871094	-926.2574462890627	281.4610595703126	189.9078369140625	-1012.569519042969	284.2992248535157	86.9989700317383	-977.4661254882815	419.6607055664064	263.4911499023438	-1002.882263183594	420.7430725097657	263.7961730957032	-963.2803344726565	417.1526794433595	216.6649932861329	-910.5715942382815	nan	nan	nan	
656	3.275	-167.116195678711	1439.991088867188	-1168.677001953125	-282.6077575683594	1372.830200195313	-1214.132080078125	-331.3732299804688	1322.295288085938	-1084.289184570313	-318.2999267578126	1242.142456054688	-1128.086059570313	-481.4284057617189	987.8734130859377	-1080.180541992188	nan	nan	nan	-252.2032318115235	1240.104248046875	-1257.48046875	-100.9042129516602	1223.932006835938	-1336.694946289063	-72.5364456176758	1234.790771484375	-1296.153442382813	-31.38402557373048	1217.47607421875	-1336.989868164063	28.65110778808594	1196.353637695313	-1337.911376953125	22.89677429199219	1140.030029296875	-1306.93212890625	nan	nan	nan	303.5209350585938	1244.163330078125	-1288.118408203125	369.2539672851563	1267.894287109375	-1197.886474609375	-215.1141357421876	1228.509033203125	-1015.100830078125	-54.71072387695314	1185.419311523438	-941.2877197265627	-30.77978515625001	1211.033203125	-976.0430297851565	12.90491199493409	1175.631713867188	-951.719909667969	74.26205444335939	1174.110473632813	-967.3342895507815	65.51158905029298	1116.505859375	-1017.366638183594	318.0977783203126	1256.830200195313	-1113.884155273438	335.5043945312501	1232.081665039063	-1043.506591796875	414.7366638183595	1274.781616210938	-1112.644165039063	-372.4074096679688	782.9987792968752	-1175.465698242188	-360.8545532226563	797.7268066406252	-956.6186523437502	-545.4144897460939	826.0969848632815	-1054.132080078125	-558.4692382812501	794.023864746094	-1080.511962890625	-553.4412231445314	796.4183349609377	-1025.247314453125	-310.1911010742188	557.8176269531251	-1231.642578125	-226.525375366211	545.4247436523439	-1244.68408203125	-200.9711456298829	584.0233764648439	-1250.630493164063	-194.0535736083985	497.6082763671876	-1228.823486328125	-89.62681579589845	437.9808349609376	-1217.565063476563	-90.02717590332033	440.1850891113282	-1091.367919921875	-147.504623413086	247.0366973876954	-1132.7177734375	-227.3999328613282	246.6333923339844	-1175.053100585938	-194.9800720214844	223.4130554199219	-1153.477661132813	-234.7236480712891	162.7173004150391	-1104.442749023438	-341.9763488769532	121.1100463867188	-1110.93603515625	-300.1235046386719	139.9043731689453	-1031.396728515625	-412.6112670898439	98.09051513671878	-1050.24755859375	-197.7054595947266	57.79143524169923	-1051.8583984375	-203.8262329101563	49.95431518554689	-1097.589599609375	-260.8804626464844	35.71789932250977	-1138.640869140625	-260.3822937011719	600.3162841796876	-873.5664062500002	-194.8816528320313	590.8055419921876	-881.5137939453127	-175.6919403076172	616.3139038085939	-890.664001464844	-154.9137115478516	517.8389892578126	-891.1133422851565	-45.56690216064454	441.2437133789064	-903.8039550781252	-38.77641296386719	437.9626770019532	-1040.462036132813	129.4532012939453	365.8685913085938	-930.7747802734377	146.3570098876953	261.4270019531251	-904.376892089844	177.6063690185547	293.9702758789063	-915.964294433594	223.5691070556641	278.8044433593751	-949.316345214844	286.8715820312501	167.1853179931641	-926.2076416015627	281.2005615234376	190.2327423095703	-1013.260620117188	283.9564819335938	87.55449676513673	-977.328308105469	419.4137268066407	263.4110412597657	-1002.894165039063	420.5738830566407	263.6991271972657	-963.2780761718752	416.9413146972657	216.5564727783204	-910.4577636718752	nan	nan	nan	
657	3.28	-167.6131591796875	1441.2880859375	-1168.494140625	-283.0250244140626	1373.942504882813	-1214.008178710938	-331.4674072265626	1323.231567382813	-1084.33837890625	-318.6893920898438	1243.003295898438	-1127.962158203125	-480.8789978027345	988.6912231445315	-1080.241455078125	nan	nan	nan	-252.3263702392579	1241.147216796875	-1257.487426757813	-100.5861587524414	1225.283935546875	-1336.703491210938	-72.40295410156251	1236.181274414063	-1296.437866210938	-31.53233337402344	1218.663452148438	-1336.887451171875	28.78787231445313	1197.456909179688	-1337.712768554688	22.7564868927002	1141.616943359375	-1307.073486328125	nan	nan	nan	302.9320068359376	1245.756591796875	-1287.913940429688	369.1359558105469	1269.340454101563	-1197.563232421875	-215.3388977050782	1229.277587890625	-1014.948791503906	-54.83499908447267	1187.29541015625	-940.9694824218752	-31.07830238342286	1211.863403320313	-976.0284423828127	12.86487293243409	1176.931030273438	-951.595642089844	73.97302246093751	1175.007568359375	-967.2399902343752	65.49767303466798	1117.610961914063	-1017.372741699219	317.9510803222657	1258.161254882813	-1113.646362304688	335.3966674804688	1233.326171875	-1043.365234375	414.1427001953126	1276.1328125	-1112.417358398438	-372.2866821289063	783.6619873046877	-1175.662475585938	-360.4817199707032	798.4625244140627	-957.022644042969	-545.0521850585939	826.9888916015627	-1054.406616210938	-557.3926391601564	794.136169433594	-1080.496215820313	-551.4883422851564	796.0772094726565	-1025.15625	-310.2328491210938	558.5239257812501	-1231.87158203125	-226.5221710205079	546.0733642578126	-1244.73486328125	-201.0320739746094	584.4597167968751	-1250.537719726563	-194.1911926269532	498.2283020019532	-1228.988525390625	-89.92006683349611	438.3972167968751	-1217.477416992188	-90.55974578857423	440.3250122070314	-1091.27392578125	-147.7632751464844	247.4174041748047	-1132.956665039063	-227.7098388671876	246.8461151123047	-1175.2490234375	-195.207260131836	223.6374664306641	-1153.612426757813	-234.8635559082032	162.7866973876953	-1104.724975585938	-341.9191589355469	121.0273208618164	-1111.099487304688	-300.2910766601563	140.0836486816407	-1031.652954101563	-412.6122131347657	97.98188018798831	-1050.366821289063	-197.8043212890626	57.81048583984376	-1051.909545898438	-203.929428100586	50.45747756958009	-1097.557983398438	-260.7739257812501	35.57486724853516	-1138.713012695313	-260.1095886230469	600.9038085937501	-873.7639770507815	-195.1331939697266	591.3620605468751	-881.3733520507815	-175.8394927978516	616.6935424804689	-890.8137817382815	-155.2761688232422	518.6531372070314	-891.279479980469	-45.65626525878907	441.414276123047	-904.0224609375002	-39.06933975219727	438.4804077148439	-1040.667114257813	129.2471160888672	366.2137756347657	-930.8938598632815	145.8256530761719	261.7556762695313	-904.368347167969	177.068588256836	294.3770141601563	-916.0152587890627	223.3009033203126	279.0235290527344	-949.3704833984377	286.3079833984376	167.2729797363282	-926.2318115234377	280.7649841308594	190.213134765625	-1013.254516601563	283.2959594726563	87.61038970947267	-977.3619384765627	419.3071594238282	263.2253723144532	-1002.879943847656	420.1816406250001	263.4766845703126	-963.1971435546877	416.5576782226564	216.0031280517579	-910.3438110351565	nan	nan	nan	
658	3.285	-168.2928161621094	1442.234497070313	-1168.333618164063	-283.3619995117188	1375.089111328125	-1213.963012695313	-331.9522399902344	1324.377807617188	-1084.176391601563	-318.6890869140626	1243.920654296875	-1128.131469726563	-480.8430175781251	989.3480224609377	-1080.167724609375	nan	nan	nan	-252.8487243652344	1242.518432617188	-1257.482177734375	-101.0814666748047	1226.429565429688	-1336.657958984375	-73.10622406005861	1237.722412109375	-1296.326416015625	-31.71848106384278	1219.996337890625	-1336.877685546875	28.18011283874512	1199.088256835938	-1337.6806640625	22.49641036987305	1142.69287109375	-1306.896362304688	nan	nan	nan	303.0883178710938	1247.0712890625	-1287.848876953125	368.7605285644532	1270.597778320313	-1197.53564453125	-215.0725860595704	1230.22314453125	-1014.570190429688	-54.69729232788087	1188.077392578125	-940.9944458007815	-31.10370635986329	1213.189697265625	-976.1018066406252	12.39380073547364	1177.844116210938	-951.502380371094	73.94659423828126	1175.858520507813	-966.9890136718752	65.36080932617189	1118.926635742188	-1017.467895507813	317.7551574707032	1259.441162109375	-1113.6787109375	335.1799316406251	1234.435546875	-1043.348266601563	414.1151123046876	1277.694091796875	-1112.574462890625	-372.0694274902344	784.4114990234377	-1175.741455078125	-360.5043640136719	799.0447387695315	-957.1462402343752	-544.8699340820314	827.7304687500002	-1054.462280273438	-558.1693725585939	795.7903442382815	-1080.965209960938	-553.0278320312501	798.1806640625002	-1025.5732421875	-310.2841796875001	559.3745727539064	-1231.953247070313	-226.5517578125001	546.6049194335939	-1244.692016601563	-201.0731353759766	585.1174926757814	-1250.514282226563	-194.2325134277344	498.7913818359376	-1228.933959960938	-90.15106201171876	438.7453613281251	-1217.385620117188	-90.8727264404297	440.679168701172	-1091.143310546875	-147.9089813232422	247.8063659667969	-1133.489379882813	-227.7528228759766	247.0379333496094	-1175.405639648438	-195.3556213378907	223.7704315185547	-1153.817260742188	-234.8500366210938	162.6264038085938	-1104.923950195313	-342.0704345703126	121.0025405883789	-1111.29931640625	-300.2245483398438	139.9856872558594	-1031.841918945313	-412.7245178222657	98.12010192871097	-1050.494018554688	-197.745101928711	57.87406158447267	-1052.06298828125	-204.7055969238282	49.06761550903322	-1097.195556640625	-260.8420715332032	35.48969650268555	-1138.822509765625	-259.9670715332032	601.7327880859376	-873.5259399414065	-195.2620239257813	591.9031372070314	-881.5368652343752	-175.746826171875	617.2978515625001	-890.7679443359377	-155.3672637939453	519.1094970703126	-891.4672851562502	-45.87131881713868	441.8220825195314	-904.1465454101565	-39.26591491699219	438.7725219726564	-1040.70751953125	129.0432739257813	366.3135986328126	-931.0112915039065	145.5636749267578	261.7948913574219	-904.472106933594	176.8463745117188	294.4803161621094	-916.0925292968752	222.9893188476563	279.2860717773438	-949.3943481445315	285.7519226074219	167.2646484375	-926.311706542969	280.4543151855469	190.3149108886719	-1013.332458496094	282.8712158203126	87.61972045898439	-977.5736083984377	419.0349426269532	263.0495910644532	-1002.788635253906	419.8652648925782	263.3074035644532	-963.013366699219	416.0786743164064	216.014633178711	-910.4643554687502	nan	nan	nan	
